<mxfile host="app.diagrams.net" modified="2024-04-07T06:57:49.984Z" agent="Mozilla/5.0 (Windows NT 10.0; Win64; x64) AppleWebKit/537.36 (KHTML, like Gecko) Chrome/123.0.0.0 Safari/537.36" version="24.2.2" etag="3RpyaGx2bx2P1KCCfZ1u" type="github">
  <diagram name="Page-1" id="0DqsL_arq_FAep4SUg3t">
    <mxGraphModel>
      <root>
        <mxCell id="0" />
        <mxCell id="1" parent="0" />
      </root>
    </mxGraphModel>
  </diagram>
</mxfile>
